<svg xmlns="http://www.w3.org/2000/svg" id="Layer_2" viewBox="0 0 104.8 104.8"><defs><style>.st0{fill:#fff}</style></defs><g id="Layer_1-2"><path d="M25 96.7h-.5C9.8 87.6 0 71.1 0 52.4s2.7-19 7.4-26.9c.2.5.4.9.6 1.1 1.6 2.2 3.3 3.2 5.9 4.7.2.1.7.5.9.9q.15.45 0 1.2c-1.1 2.8-1 5.7-1 8.6v19.9c0 11.8 4.9 20.7 15.4 26.2l.4.2c.1.2.3.4.2.8v.2c-.5 1.3-.9 2.4-1.3 3.3-1 2.4-1.7 3.4-3.3 3.8ZM35.1 36c-3.5-1-6.4-3.1-9.7-5.5 3.9-2 7.5-2.6 11.3-1.4 1.5.5 2.7 1.3 3.5 2.7s.6 2.7-.9 3.6c-1.3.8-2.7 1.1-4.2.6M38.5 84.1c4.7-13.7 9.3-27.2 13.9-40.9l10.4 30.6c1.2 3.4 2.3 6.9 3.5 10.3-9.3 2.3-18.4 2.4-27.8 0M71.4 99l.7 2c-1.6.7-3.3 1.3-5 1.7l-1.2.3c-.2 0-.3 0-.5.1-4.1 1.1-8.5 1.6-13 1.6-7 0-13.7-1.4-19.8-3.9l.7-1.9s0-.3.2-.7l.3-.9.6-1.8c0-.2.2-.4.2-.7.5-1.5 1-2.9 1-3v-.6s0-.2-.2-.2-.7-.3-.9-.5c-.3-.2-1.1-.7-1.1-.8 0 0 .6.2 1.5.6.4.1.8.3 1.1.3 1.2.3 2.4.7 3.5.9 1.8.4 3.6.9 5.4 1.1 6.1.9 12.2.5 18.2-.5 1.2-.2 2.3-.4 3.5-.6 1.1-.2 2.2 0 2.5 1l2.1 6.3Z" class="st0"/><path d="M79 97.6h-.2c-2.2 0-3.1-3.3-4.9-8.3 1.4-.8 2.7-1.5 4-2.3C90.3 80 95 65 90.8 52.4c-1.9-5.6-5.6-9.6-10.5-12.3-2.7-1.6-5.9-2.5-8.8-3.7-2.1-.8-4.4-1.5-6.4-2.5-1.9-.9-1.9-2.4-.2-3.5 3.2-1.8 6.6-1.8 10.1-1.1q1.2.15 2.4.6c.2 0 .4.1.6.2.1 0 .2.1.3.2h.1c.2.1.3.2.5.4.2.1.3.2.5.4.4.4.8.8 1.1 1.3.6.9 1.5 1.4 2.2 1.5 2.5.6 4.7.1 6-.7-.6-.2-1-.4-1.5-1.7 0-.2-.1-.4-.2-.6 0-.2-.1-.5-.2-.7-.3-1-.9-2.1-1.6-2.9-.2-.2-.3-.4-.5-.6-1.2-1.3-3.6-2.7-5.2-3.3-5-1.9-10.2-2-15.4-.3-1.5.5-3 1.3-4.2 2.2-3.9 3-4.5 8.1-1.6 12q2.25 3 5.7 4.2c2.3.9 4.7 1.6 7.1 2.4 2.9.9 5.6 2.1 8.1 3.9 3.6 2.6 5.8 6.2 6.4 10.5 1.5 10.9-2.9 19.4-12.6 23.5-.4.2-.9.3-1.7.5-6.9-19.4-13.6-38.8-19.7-59-.5 1.6-1 2.8-1.3 4-4.9 17.5-10.7 34.7-17 51.8-.1.4-.3.8-.5 1.1-.7 1.5-.8 1.6-2.2.8-4.2-2.3-7.1-5.7-8.9-10.2-1.2-3.2-1.5-6.5-1.6-9.8V39.8c0-1 .1-2.1.4-3.2 0-.3.1-.5.3-.5.4-.2.8 0 1.2.4 0 0 .1 0 .2.2.4.2.7.5 1.1.7.1 0 .2.2.3.2 3 2 6.1 3.9 9.6 4.8 2.5.6 5 .5 7.3-.4 3.5-1.3 5.9-3.8 6.3-7.7v-1.4c0-2.9-2.2-6.7-4.8-8.2-2-1.2-4.2-2-6.4-2.3-4.1-.5-10 .2-14.6 2.8h-.2c-1.4.7-3.5.6-5.4-.2-2.4-1.1-3.9-3.1-3.9-4.9 0-.7.2-1.4.7-2 0-.1.1-.2.2-.3C22.5 6.9 36.7 0 52.4 0c29 0 52.4 23.5 52.4 52.4s-.8 10.7-2.3 15.6c-.6 1.8-6.4 19.5-23.3 29.5h-.1Z" class="st0"/><path d="M62.8 73.7 52.4 43.1C47.8 56.8 43.2 70.3 38.5 84c9.4 2.4 18.5 2.3 27.8 0-1.2-3.4-2.3-6.9-3.5-10.3M40.2 31.9c-.8-1.4-2-2.2-3.5-2.7-3.8-1.2-7.4-.6-11.3 1.4 3.3 2.4 6.2 4.5 9.7 5.5 1.6.5 3 .2 4.2-.6 1.4-.8 1.7-2.1.9-3.6M77.8 30.2c-.2-.1-.4-.2-.6-.2.2 0 .4.1.6.2M78.8 30.9c-.2-.1-.3-.2-.5-.3h-.1.1c.2.1.3.2.5.4ZM86.8 30.4c-.3-1-.9-2.1-1.6-2.9.7.8 1.2 1.7 1.6 2.9" class="st0"/><path d="M78.3 30.5c.2.1.3.2.5.4-.2-.1-.3-.2-.5-.4M36.8 29.2c1.5.5 2.7 1.3 3.5 2.7s.6 2.7-.9 3.6c-1.3.8-2.7 1.1-4.2.6-3.5-1-6.4-3.1-9.7-5.5 3.9-2 7.5-2.6 11.3-1.4m1.7 54.9c4.7-13.7 9.3-27.2 13.9-40.9l10.4 30.6c1.2 3.4 2.3 6.9 3.5 10.3-9.3 2.3-18.4 2.4-27.8 0" class="st0"/></g></svg>