<?xml version="1.0" encoding="UTF-8"?>
<svg xmlns="http://www.w3.org/2000/svg" xmlns:xlink="http://www.w3.org/1999/xlink" viewBox="0 0 477.05 553.67">
  <defs>
    <style>
      .cls-1 {
        fill: url(#linear-gradient-4);
        mix-blend-mode: hard-light;
      }

      .cls-2 {
        fill: url(#linear-gradient-2);
        opacity: .5;
      }

      .cls-2, .cls-3 {
        mix-blend-mode: color-burn;
      }

      .cls-4 {
        fill: url(#linear-gradient-3);
      }

      .cls-5 {
        fill: url(#linear-gradient-6);
      }

      .cls-5, .cls-6 {
        mix-blend-mode: multiply;
      }

      .cls-7 {
        fill: url(#linear-gradient);
      }

      .cls-8 {
        isolation: isolate;
      }

      .cls-9 {
        fill: #5b6d90;
      }

      .cls-6 {
        fill: #f69389;
      }

      .cls-3 {
        fill: url(#linear-gradient-5);
      }

      .cls-10 {
        fill: #aec6d0;
      }
    </style>
    <linearGradient id="linear-gradient" x1="227.04" y1="187.88" x2="339.36" y2="486.64" gradientUnits="userSpaceOnUse">
      <stop offset="0" stop-color="#d08397"/>
      <stop offset=".11" stop-color="#b48190"/>
      <stop offset=".29" stop-color="#907f88"/>
      <stop offset=".47" stop-color="#747d82"/>
      <stop offset=".64" stop-color="#607c7d"/>
      <stop offset=".82" stop-color="#547c7a"/>
      <stop offset="1" stop-color="#517c7a"/>
    </linearGradient>
    <linearGradient id="linear-gradient-2" x1="238.52" y1="0" x2="238.52" y2="553.67" gradientUnits="userSpaceOnUse">
      <stop offset="0" stop-color="#7c93c1"/>
      <stop offset=".5" stop-color="#5b6d90"/>
      <stop offset="1" stop-color="#231f20"/>
    </linearGradient>
    <linearGradient id="linear-gradient-3" x1="238.52" y1="517.86" x2="238.52" y2="33.41" gradientUnits="userSpaceOnUse">
      <stop offset="0" stop-color="#bdc8df"/>
      <stop offset=".48" stop-color="#5c6a8b"/>
      <stop offset="1" stop-color="#545a6b"/>
    </linearGradient>
    <linearGradient id="linear-gradient-4" x1="238.26" y1="372.43" x2="238.26" y2="61.86" gradientUnits="userSpaceOnUse">
      <stop offset="0" stop-color="#fff"/>
      <stop offset="1" stop-color="#acc3cd"/>
    </linearGradient>
    <linearGradient id="linear-gradient-5" x1="267.5" y1="544.76" x2="267.5" y2="205.48" gradientUnits="userSpaceOnUse">
      <stop offset="0" stop-color="#231f20" stop-opacity="0"/>
      <stop offset="1" stop-color="#231f20"/>
    </linearGradient>
    <linearGradient id="linear-gradient-6" x1="256.06" y1="422.57" x2="256.06" y2="213.78" gradientUnits="userSpaceOnUse">
      <stop offset="0" stop-color="#8ed8f8"/>
      <stop offset="1" stop-color="#b1538e"/>
    </linearGradient>
  </defs>
  <g class="cls-8">
    <g id="Layer_2" data-name="Layer 2">
      <g id="Layer_1-2" data-name="Layer 1">
        <g>
          <path class="cls-10" d="M419.33,360.72l-.22.41c-24.02,46.69-78.94,81.91-132.04,115.98-16.17,10.37-32.7,20.97-48.32,31.93-15.85-11.28-32.64-22.2-49.05-32.87-52.89-34.39-107.58-69.96-131.69-116.61l-.15-.29c-24.71-46.76-22.73-112.69-20.82-176.45.57-19.12,1.15-38.67.98-57.69,69.21-19.17,136.46-47.15,200.49-83.44,63.82,36.46,130.89,64.66,199.97,84.08-.09,19.1.59,38.72,1.27,57.91,2.23,63.93,4.55,130.03-20.42,177.04Z"/>
          <path class="cls-7" d="M441.05,238.61c0,1.32-.01,2.64-.01,3.96,0,.95-.01,1.89-.02,2.84-.01,1.4-.03,2.8-.05,4.2-.05,3.5-.13,6.97-.25,10.43-.03.7-.05,1.39-.07,2.08-.11,2.76-.23,5.51-.38,8.24,0,.05,0,.09-.01.13-.16,3.06-.36,6.09-.6,9.11-.08.99-.16,1.98-.24,2.96-.04.47-.08.94-.12,1.41-.13,1.44-.27,2.87-.41,4.3-.01.1-.02.2-.03.3-.14,1.33-.28,2.65-.43,3.97,0,.03-.01.06-.01.08-.15,1.29-.3,2.58-.47,3.86-.04.35-.09.7-.13,1.04-.07.54-.14,1.08-.22,1.61-.09.67-.19,1.33-.28,1.99-.62,4.3-1.33,8.53-2.14,12.69-.12.63-.25,1.26-.38,1.89-.06.32-.13.63-.2.95-.22,1.06-.45,2.11-.68,3.15-.25,1.1-.5,2.18-.76,3.26-.03.17-.07.33-.12.49-.11.47-.22.94-.34,1.4-.05.22-.1.43-.16.63-.21.83-.43,1.67-.65,2.5-.67,2.49-1.38,4.95-2.14,7.37-.03.09-.05.18-.08.26-.24.77-.49,1.53-.74,2.29-.26.76-.51,1.51-.77,2.26-.27.79-.55,1.58-.84,2.37,0,.01,0,.02-.01.03-.28.78-.57,1.55-.87,2.32-.24.63-.49,1.27-.74,1.9-.11.29-.22.58-.34.86-.28.7-.57,1.39-.86,2.08-.29.68-.59,1.37-.89,2.05-.42.96-.85,1.91-1.3,2.86-.44.95-.9,1.89-1.36,2.83-.52,1.06-1.06,2.12-1.62,3.16l-.22.41c-.49.95-.99,1.9-1.51,2.84-.35.64-.7,1.28-1.07,1.91-.13.24-.26.47-.41.71-.34.6-.69,1.2-1.05,1.79-.07.14-.16.28-.25.42-.45.75-.9,1.49-1.37,2.23-.36.59-.73,1.17-1.11,1.75-.42.65-.85,1.3-1.28,1.94-1.13,1.69-2.3,3.36-3.5,5.02-.46.63-.93,1.26-1.4,1.88-2.47,3.29-5.1,6.54-7.87,9.72-.46.53-.92,1.06-1.39,1.59-.46.53-.93,1.06-1.41,1.58-.63.7-1.27,1.39-1.92,2.09-.58.62-1.16,1.24-1.75,1.86-.6.64-1.21,1.28-1.83,1.91-.58.6-1.16,1.19-1.75,1.78-3.95,3.98-8.09,7.87-12.41,11.69-.79.7-1.58,1.4-2.38,2.09-.01.02-.02.03-.04.03-.85.75-1.72,1.49-2.59,2.23-.95.81-1.9,1.61-2.87,2.41-.59.49-1.18.98-1.78,1.47-.72.6-1.45,1.19-2.18,1.78-23.36,18.9-50.37,36.23-76.92,53.26-16.17,10.37-32.7,20.97-48.32,31.93-15.85-11.28-32.64-22.2-49.05-32.87-1.74-1.13-3.47-2.26-5.21-3.39-1.58-1.02-3.15-2.05-4.72-3.07-10.76-7.03-21.52-14.13-31.99-21.38-1.26-.87-2.51-1.74-3.75-2.61-.78-.55-1.55-1.09-2.32-1.64-.88-.62-1.76-1.24-2.64-1.88-3.04-2.16-6.04-4.34-9.01-6.55-1.19-.87-2.37-1.75-3.54-2.64-1.89-1.43-3.77-2.87-5.63-4.32-.62-.47-1.22-.95-1.83-1.43-11.53-9.06-22.31-18.46-31.87-28.34-.5-.52-1-1.04-1.5-1.57-.49-.52-.99-1.04-1.47-1.57-.49-.52-.98-1.05-1.46-1.58-1.94-2.11-3.81-4.24-5.61-6.4-.45-.54-.9-1.08-1.35-1.62-.45-.54-.9-1.08-1.32-1.63-6.42-7.99-11.97-16.3-16.47-24.99l-.15-.29c-24.71-46.76-22.73-112.69-20.82-176.45.57-19.12,1.15-38.67.98-57.69,69.21-19.17,136.46-47.15,200.49-83.44,63.82,36.46,130.89,64.66,199.97,84.08-.09,19.1.59,38.72,1.27,57.91.26,7.41.52,14.85.73,22.28.05,1.4.09,2.81.12,4.21.04,1.4.07,2.8.11,4.2.07,2.8.13,5.6.18,8.39.02,1.34.04,2.68.07,4.02.02,2.08.05,4.16.06,6.23.02,1.87.03,3.74.03,5.6Z"/>
          <path class="cls-2" d="M476.47,205c-1.09-37.18-3.19-73.85-1.15-106.77C391.86,77.82,312.15,44.32,238.59,0c-33.85,20.23-68.99,38.18-105.19,53.62-4.96,2.12-9.94,4.19-14.93,6.2-14.05,5.69-28.26,11-42.6,15.91-6.13,2.1-12.28,4.13-18.46,6.08-18.58,5.9-37.38,11.14-56.37,15.7,5.78,86.4-16.84,199.43,24.99,278.58,8.45,16.35,19.61,31.24,32.61,45.06,49.76,52.92,126.32,90.08,179.66,132.52h.57c35.96-28.19,82.42-53.97,124.11-83.88,36.43-26.12,69.21-55.4,88.14-92.18,4.6-8.66,8.42-17.72,11.59-27.1.24-.71.48-1.42.71-2.14,1.35-4.14,2.57-8.34,3.67-12.6,10.56-40.56,10.7-86.04,9.38-130.77ZM460.12,333.96c-1.07,4.16-2.26,8.25-3.54,12.18-.24.72-.46,1.39-.69,2.06-3.13,9.27-6.88,18.02-11.13,26.03-15.84,30.79-42.35,58.43-85.97,89.71-18.2,13.06-37.53,25.45-56.22,37.44-22.88,14.69-44.59,28.61-63.95,43.38-19.54-15.13-41.47-29.39-64.6-44.43-39.28-25.54-79.9-51.96-110.13-84.11-.89-.95-1.76-1.89-2.63-2.83-12.18-13.36-21.63-26.67-28.83-40.61C4.14,319.25,6.23,249.46,8.25,181.97c.83-27.76,1.62-54.1.33-78.89,17.09-4.24,34.22-9.08,51.01-14.41,6.04-1.91,12.31-3.97,18.61-6.13,14.35-4.91,28.81-10.31,42.97-16.05,4.94-1.98,10.01-4.09,15.06-6.25,34.84-14.86,69.25-32.3,102.34-51.86,72.57,43.25,149.64,75.32,229.24,95.4-1.17,24.8-.25,51.09.71,78.8.27,7.46.53,14.95.74,22.47.01.05.01.11.01.16,1.2,40.68,1.59,87.52-9.15,128.75Z"/>
          <path class="cls-9" d="M469.27,205.21c-.22-7.57-.48-15.12-.75-22.63-.96-27.71-1.88-54-.71-78.8-79.6-20.08-156.67-52.15-229.24-95.4-33.09,19.56-67.5,37-102.34,51.86-5.05,2.16-10.12,4.27-15.06,6.25-14.16,5.74-28.62,11.14-42.97,16.05-6.3,2.16-12.57,4.22-18.61,6.13-16.79,5.33-33.92,10.17-51.01,14.41,1.29,24.79.5,51.13-.33,78.89-2.02,67.49-4.11,137.28,24.18,190.81,7.71,14.92,18,29.13,31.46,43.44,30.23,32.15,70.85,58.57,110.13,84.11,23.13,15.04,45.06,29.3,64.6,44.43,19.36-14.77,41.07-28.69,63.95-43.38,18.69-11.99,38.02-24.38,56.22-37.44,43.62-31.28,70.13-58.92,85.97-89.71,4.25-8.01,8-16.76,11.13-26.03.23-.67.45-1.34.69-2.06,1.28-3.93,2.47-8.02,3.54-12.18,10.74-41.23,10.35-88.07,9.15-128.75ZM448.24,242.6c-.07,13.89-.52,26.18-1.4,37.58l-.25,2.99-.12,1.45c-.25,2.81-.54,5.62-.84,8.36v.25s-.08.42-.08.42c-.15,1.26-.3,2.53-.47,3.81-.01.12-.03.23-.04.34l-.03.24c-.17,1.37-.37,2.74-.56,4.08-.16,1.17-.34,2.32-.52,3.46-.09.62-.18,1.22-.29,1.83-.18,1.11-.37,2.21-.56,3.32-.22,1.21-.44,2.4-.66,3.56-.18.97-.37,1.94-.59,2.96,0,0-.12.61-.16.79-.47,2.24-.98,4.49-1.5,6.67-.22.92-.43,1.82-.65,2.64-.22.85-.44,1.72-.68,2.6-.7,2.59-1.44,5.16-2.21,7.63-.04.14-.08.27-.13.4-.5,1.56-1.01,3.11-1.53,4.61-.15.44-.3.87-.45,1.31v1.74s-1,1-1,1c-.12.3-.24.61-.35.91-.25.66-.52,1.33-.76,1.95-.13.34-.26.67-.4,1-.53,1.32-1.12,2.71-1.8,4.26-.87,1.98-1.82,4-2.8,5.97-.26.55-.53,1.08-.77,1.54-.31.6-.62,1.21-.96,1.85l-.19.36c-1.79,3.46-3.78,6.94-5.91,10.33-.33.54-.67,1.07-1.01,1.6-.09.14-.17.26-.24.37-.43.65-.86,1.31-1.26,1.91-.39.58-.78,1.16-1.14,1.68-.38.55-.76,1.11-1.1,1.58-.45.64-.89,1.26-1.33,1.86-.52.73-1.06,1.45-1.59,2.14-1.2,1.6-2.39,3.13-3.53,4.55-.61.75-1.22,1.5-1.82,2.23-1.8,2.17-3.73,4.39-5.72,6.6-.65.72-1.32,1.44-2.01,2.19-.59.63-1.19,1.27-1.76,1.87-.64.68-1.29,1.36-1.91,1.99-.6.62-1.21,1.24-1.81,1.84-6.15,6.2-12.88,12.33-20.51,18.68-.68.58-1.39,1.16-2.09,1.72-.74.63-1.49,1.24-2.24,1.84-.73.59-1.46,1.18-2.19,1.76-5.7,4.54-11.78,9.14-18.59,14.06-1.07.78-2.16,1.56-3.23,2.32-4.42,3.15-9.02,6.34-14.06,9.76-3.25,2.2-6.51,4.39-9.78,6.55-1.57,1.05-3.16,2.09-4.74,3.13-8.53,5.6-17.26,11.19-24.96,16.13l-.09.06c-15.98,10.25-32.51,20.85-47.98,31.7l-4.17,2.93-4.14-2.95c-15.78-11.23-32.57-22.15-48.8-32.7-43.38-28.21-88.23-57.37-116.91-93.15-6.89-8.57-12.69-17.38-17.26-26.19l-.12-.24c-25.59-48.43-23.59-115.31-21.65-180.02.57-18.9,1.15-38.44.98-57.42l-.05-5.52,5.32-1.48c2.17-.6,4.34-1.21,6.51-1.83l.33-.09c2.01-.58,4.02-1.16,6.08-1.77l.15-.04c2.01-.59,4.02-1.19,6.02-1.8l.19-.06c1.45-.43,2.9-.88,4.38-1.33.8-.24,1.6-.49,2.43-.76,1.43-.44,2.88-.9,4.33-1.36,1.38-.43,2.75-.88,4.13-1.32l.19-.06c1.94-.63,3.87-1.26,5.89-1.93l.52-.17c1.58-.52,3.17-1.05,4.79-1.61,1.83-.61,3.65-1.23,5.48-1.87,1.41-.48,2.81-.98,4.25-1.48.96-.33,1.93-.68,2.9-1.02,2.47-.88,4.93-1.77,7.46-2.71,1.88-.67,3.76-1.37,5.66-2.09,2.61-.97,5.21-1.96,7.84-2.98,1.71-.65,3.41-1.31,5.13-1.99,2.56-1,5.12-2.01,7.71-3.07,1.76-.7,3.5-1.41,5.33-2.16l.26-.11c1.16-.47,2.31-.95,3.46-1.43l2.11-.88c.83-.35,1.67-.7,2.59-1.1,1.51-.63,3.03-1.28,4.54-1.93l.66-.28c1.64-.7,3.27-1.41,4.91-2.13l2.77-1.22c1.99-.88,3.97-1.76,6.01-2.69,1.92-.85,3.83-1.73,5.78-2.63,1.02-.47,2.04-.94,3.12-1.45,1.51-.68,3-1.38,4.53-2.11,1.4-.65,2.8-1.31,4.18-1.99l.19-.09c.28-.12.57-.26.9-.42.98-.46,1.96-.93,2.97-1.42,2.56-1.24,5.12-2.5,7.74-3.81,1.06-.51,2.12-1.03,3.2-1.58,4.15-2.07,8.26-4.17,12.24-6.25,1.09-.55,2.17-1.12,3.25-1.69,0,0,1.99-1.05,2.94-1.55,7.67-4.06,15.35-8.27,22.82-12.5l3.56-2.02,3.56,2.03c63.21,36.11,129.94,64.17,198.35,83.4l5.28,1.48-.03,5.48c-.09,19.31.63,39.67,1.27,57.63.24,6.94.48,13.9.69,20.93l.04,1.39c.42,14.59.6,26.3.56,36.85Z"/>
          <path class="cls-9" d="M447.68,205.75l-.04-1.39c-.21-7.03-.45-13.99-.69-20.93-.64-17.96-1.36-38.32-1.27-57.63l.03-5.48-5.28-1.48c-68.41-19.23-135.14-47.29-198.35-83.4l-3.56-2.03-3.56,2.02c-7.47,4.23-15.15,8.44-22.82,12.5-.95.5-2.94,1.55-2.94,1.55-1.08.57-2.16,1.14-3.25,1.69-3.98,2.08-8.09,4.18-12.24,6.25-1.08.55-2.14,1.07-3.2,1.58-2.62,1.31-5.18,2.57-7.74,3.81-1.01.49-1.99.96-2.97,1.42-.33.16-.62.3-.9.42l-.19.09c-1.38.68-2.78,1.34-4.18,1.99-1.53.73-3.02,1.43-4.53,2.11-1.08.51-2.1.98-3.12,1.45-1.95.9-3.86,1.78-5.78,2.63-2.04.93-4.02,1.81-6.01,2.69l-2.77,1.22c-1.64.72-3.27,1.43-4.91,2.13l-.66.28c-1.51.65-3.03,1.3-4.54,1.93-.92.4-1.76.75-2.59,1.1l-2.11.88c-1.15.48-2.3.96-3.46,1.43l-.26.11c-1.83.75-3.57,1.46-5.33,2.16-2.59,1.06-5.15,2.07-7.71,3.07-1.72.68-3.42,1.34-5.13,1.99-2.63,1.02-5.23,2.01-7.84,2.98-1.9.72-3.78,1.42-5.66,2.09-2.53.94-4.99,1.83-7.46,2.71-.97.34-1.94.69-2.9,1.02-1.44.5-2.84,1-4.25,1.48-1.83.64-3.65,1.26-5.48,1.87-1.62.56-3.21,1.09-4.79,1.61l-.52.17c-2.02.67-3.95,1.3-5.89,1.93l-.19.06c-1.38.44-2.75.89-4.13,1.32-1.45.46-2.9.92-4.33,1.36-.83.27-1.63.52-2.43.76-1.48.45-2.93.9-4.38,1.33l-.19.06c-2,.61-4.01,1.21-6.02,1.8l-.15.04c-2.06.61-4.07,1.19-6.08,1.77l-.33.09c-2.17.62-4.34,1.23-6.51,1.83l-5.32,1.48.05,5.52c.17,18.98-.41,38.52-.98,57.42-1.94,64.71-3.94,131.59,21.65,180.02l.12.24c4.57,8.81,10.37,17.62,17.26,26.19,28.68,35.78,73.53,64.94,116.91,93.15,16.23,10.55,33.02,21.47,48.8,32.7l4.14,2.95,4.17-2.93c15.47-10.85,32-21.45,47.98-31.7l.09-.06c7.7-4.94,16.43-10.53,24.96-16.13,1.58-1.04,3.17-2.08,4.74-3.13,3.27-2.16,6.53-4.35,9.78-6.55,5.04-3.42,9.64-6.61,14.06-9.76,1.07-.76,2.16-1.54,3.23-2.32,6.81-4.92,12.89-9.52,18.59-14.06.73-.58,1.46-1.17,2.19-1.76.75-.6,1.5-1.21,2.24-1.84.7-.56,1.41-1.14,2.09-1.72,7.63-6.35,14.36-12.48,20.51-18.68.6-.6,1.21-1.22,1.81-1.84.62-.63,1.27-1.31,1.91-1.99.57-.6,1.17-1.24,1.76-1.87.69-.75,1.36-1.47,2.01-2.19,1.99-2.21,3.92-4.43,5.72-6.6.6-.73,1.21-1.48,1.82-2.23,1.14-1.42,2.33-2.95,3.53-4.55.53-.69,1.07-1.41,1.59-2.14.44-.6.88-1.22,1.33-1.86.34-.47.72-1.03,1.1-1.58.36-.52.75-1.1,1.14-1.68.4-.6.83-1.26,1.26-1.91.07-.11.15-.23.24-.37.34-.53.68-1.06,1.01-1.6,2.13-3.39,4.12-6.87,5.91-10.33l.19-.36c.34-.64.65-1.25.96-1.85.24-.46.51-.99.77-1.54.98-1.97,1.93-3.99,2.8-5.97.68-1.55,1.27-2.94,1.8-4.26.14-.33.27-.66.4-1,.24-.62.51-1.29.76-1.95.11-.3.23-.61.35-.91l.99-1v-1.74c.16-.44.31-.87.46-1.31.52-1.5,1.03-3.05,1.53-4.61.05-.13.09-.26.13-.4.77-2.47,1.51-5.04,2.21-7.63.24-.88.46-1.75.68-2.6.22-.82.43-1.72.65-2.64.52-2.18,1.03-4.43,1.5-6.67.04-.18.16-.79.16-.79.22-1.02.41-1.99.59-2.96.22-1.16.44-2.35.66-3.56.19-1.11.38-2.21.56-3.32.11-.61.2-1.21.29-1.83.18-1.14.36-2.29.52-3.46.19-1.34.39-2.71.56-4.08l.03-.24c.01-.11.03-.22.04-.34.17-1.28.32-2.55.47-3.81l.07-.42v-.25c.31-2.74.6-5.55.85-8.36l.12-1.45.25-2.99c.88-11.4,1.33-23.69,1.4-37.58.04-10.55-.14-22.26-.56-36.85ZM439.66,279.6c-.08.99-.16,1.98-.24,2.96-.04.47-.08.94-.12,1.41-.26,2.88-.55,5.74-.87,8.57,0,.03-.01.06-.01.08-.15,1.29-.3,2.58-.47,3.86-.03.22-.06.44-.08.65-.17,1.34-.36,2.67-.55,3.99-.16,1.14-.33,2.27-.51,3.39-.08.57-.17,1.13-.27,1.69-.18,1.1-.36,2.19-.55,3.27-.21,1.18-.43,2.34-.65,3.5-.17.91-.35,1.83-.54,2.73-.06.27-.11.55-.17.82-.46,2.2-.95,4.38-1.47,6.54-.2.85-.4,1.69-.62,2.52-.21.83-.43,1.67-.65,2.5-.67,2.49-1.38,4.94-2.14,7.37-.03.09-.05.18-.08.26-.49,1.53-.99,3.05-1.51,4.55-.27.79-.55,1.58-.84,2.37,0,.01,0,.02-.01.03-.28.78-.57,1.55-.87,2.32-.24.63-.49,1.27-.74,1.9-.11.29-.22.58-.34.86-.56,1.39-1.15,2.77-1.75,4.13-.84,1.92-1.73,3.82-2.66,5.69-.24.49-.48.97-.73,1.45-.29.57-.59,1.14-.89,1.71l-.22.41c-1.73,3.36-3.62,6.66-5.66,9.9-.32.53-.66,1.06-1,1.58-.03.06-.07.11-.11.17-.42.65-.85,1.3-1.28,1.94-.35.53-.71,1.06-1.08,1.59-.34.5-.69,1.01-1.05,1.51-.42.6-.84,1.19-1.27,1.78-.49.68-.99,1.35-1.5,2.02-1.1,1.46-2.23,2.92-3.39,4.36-.58.72-1.16,1.44-1.76,2.16-1.78,2.15-3.62,4.27-5.52,6.37-.63.7-1.27,1.39-1.92,2.09-.58.62-1.16,1.24-1.75,1.86-.6.64-1.21,1.28-1.83,1.91-.58.6-1.16,1.19-1.75,1.78-6.23,6.28-12.96,12.35-20.06,18.26-.66.56-1.34,1.12-2.01,1.66-.72.61-1.45,1.2-2.18,1.78-.71.58-1.43,1.16-2.16,1.74-5.91,4.71-12.04,9.32-18.32,13.86-1.05.76-2.12,1.53-3.18,2.28-4.58,3.26-9.23,6.48-13.93,9.67-3.23,2.19-6.47,4.36-9.73,6.52-1.56,1.04-3.13,2.07-4.7,3.1-8.26,5.42-16.6,10.77-24.9,16.09-16.17,10.37-32.7,20.97-48.32,31.93-15.85-11.28-32.64-22.2-49.05-32.87-43.03-27.98-87.26-56.74-115.22-91.62-6.42-7.99-11.97-16.3-16.47-24.99l-.15-.29c-24.71-46.76-22.73-112.69-20.82-176.45.57-19.12,1.15-38.67.98-57.69,2.3-.64,4.6-1.29,6.9-1.94,2.02-.58,4.04-1.17,6.06-1.76.07-.02.14-.04.21-.06,2.08-.61,4.16-1.24,6.24-1.87,1.47-.44,2.94-.89,4.4-1.34.83-.25,1.66-.51,2.48-.77,1.45-.45,2.91-.91,4.36-1.37,1.46-.46,2.91-.93,4.36-1.4,1.96-.63,3.91-1.27,5.87-1.92.19-.06.39-.12.59-.19,1.61-.53,3.22-1.07,4.83-1.62,1.85-.62,3.69-1.25,5.54-1.89,1.42-.49,2.84-.99,4.26-1.49.98-.34,1.97-.69,2.95-1.04,2.5-.89,4.99-1.79,7.48-2.71,1.92-.69,3.83-1.4,5.74-2.12,2.64-.98,5.27-1.98,7.9-3,1.73-.66,3.46-1.33,5.18-2.01,2.59-1.01,5.17-2.04,7.76-3.09,1.78-.71,3.55-1.43,5.32-2.16.1-.04.2-.08.31-.13,1.65-.67,3.29-1.36,4.93-2.04,1.09-.46,2.19-.92,3.28-1.39,1.54-.64,3.08-1.3,4.62-1.96.22-.09.43-.18.65-.28,1.66-.71,3.32-1.43,4.98-2.16.93-.41,1.86-.82,2.79-1.23,2.01-.89,4.01-1.78,6.01-2.69,1.96-.87,3.91-1.76,5.85-2.66,1.05-.48,2.09-.96,3.13-1.45,1.53-.7,3.05-1.41,4.57-2.13,1.44-.67,2.88-1.35,4.31-2.05.33-.15.67-.31,1-.47,1.01-.48,2.02-.96,3.02-1.45,2.59-1.25,5.18-2.52,7.76-3.81,1.09-.53,2.18-1.07,3.27-1.62,4.12-2.06,8.22-4.15,12.31-6.28,1.11-.57,2.21-1.15,3.31-1.73.99-.52,1.98-1.04,2.96-1.56,7.71-4.08,15.38-8.28,23-12.6,63.82,36.46,130.89,64.66,199.97,84.08-.09,19.1.59,38.72,1.27,57.91.24,6.93.48,13.88.69,20.83.01.48.03.97.04,1.45.36,12.27.61,24.52.56,36.61-.06,12.57-.45,24.97-1.38,37.03Z"/>
          <path class="cls-4" d="M447.68,205.75l-.04-1.39c-.21-7.03-.45-13.99-.69-20.93-.64-17.96-1.36-38.32-1.27-57.63l.03-5.48-5.28-1.48c-68.41-19.23-135.14-47.29-198.35-83.4l-3.56-2.03-3.56,2.02c-7.47,4.23-15.15,8.44-22.82,12.5-.95.5-2.94,1.55-2.94,1.55-1.08.57-2.16,1.14-3.25,1.69-3.98,2.08-8.09,4.18-12.24,6.25-1.08.55-2.14,1.07-3.2,1.58-2.62,1.31-5.18,2.57-7.74,3.81-1.01.49-1.99.96-2.97,1.42-.33.16-.62.3-.9.42l-.19.09c-1.38.68-2.78,1.34-4.18,1.99-1.53.73-3.02,1.43-4.53,2.11-1.08.51-2.1.98-3.12,1.45-1.95.9-3.86,1.78-5.78,2.63-2.04.93-4.02,1.81-6.01,2.69l-2.77,1.22c-1.64.72-3.27,1.43-4.91,2.13l-.66.28c-1.51.65-3.03,1.3-4.54,1.93-.92.4-1.76.75-2.59,1.1l-2.11.88c-1.15.48-2.3.96-3.46,1.43l-.26.11c-1.83.75-3.57,1.46-5.33,2.16-2.59,1.06-5.15,2.07-7.71,3.07-1.72.68-3.42,1.34-5.13,1.99-2.63,1.02-5.23,2.01-7.84,2.98-1.9.72-3.78,1.42-5.66,2.09-2.53.94-4.99,1.83-7.46,2.71-.97.34-1.94.69-2.9,1.02-1.44.5-2.84,1-4.25,1.48-1.83.64-3.65,1.26-5.48,1.87-1.62.56-3.21,1.09-4.79,1.61l-.52.17c-2.02.67-3.95,1.3-5.89,1.93l-.19.06c-1.38.44-2.75.89-4.13,1.32-1.45.46-2.9.92-4.33,1.36-.83.27-1.63.52-2.43.76-1.48.45-2.93.9-4.38,1.33l-.19.06c-2,.61-4.01,1.21-6.02,1.8l-.15.04c-2.06.61-4.07,1.19-6.08,1.77l-.33.09c-2.17.62-4.34,1.23-6.51,1.83l-5.32,1.48.05,5.52c.17,18.98-.41,38.52-.98,57.42-1.94,64.71-3.94,131.59,21.65,180.02l.12.24c4.57,8.81,10.37,17.62,17.26,26.19,28.68,35.78,73.53,64.94,116.91,93.15,16.23,10.55,33.02,21.47,48.8,32.7l4.14,2.95,4.17-2.93c15.47-10.85,32-21.45,47.98-31.7l.09-.06c7.7-4.94,16.43-10.53,24.96-16.13,1.58-1.04,3.17-2.08,4.74-3.13,3.27-2.16,6.53-4.35,9.78-6.55,5.04-3.42,9.64-6.61,14.06-9.76,1.07-.76,2.16-1.54,3.23-2.32,6.81-4.92,12.89-9.52,18.59-14.06.73-.58,1.46-1.17,2.19-1.76.75-.6,1.5-1.21,2.24-1.84.7-.56,1.41-1.14,2.09-1.72,7.63-6.35,14.36-12.48,20.51-18.68.6-.6,1.21-1.22,1.81-1.84.62-.63,1.27-1.31,1.91-1.99.57-.6,1.17-1.24,1.76-1.87.69-.75,1.36-1.47,2.01-2.19,1.99-2.21,3.92-4.43,5.72-6.6.6-.73,1.21-1.48,1.82-2.23,1.14-1.42,2.33-2.95,3.53-4.55.53-.69,1.07-1.41,1.59-2.14.44-.6.88-1.22,1.33-1.86.34-.47.72-1.03,1.1-1.58.36-.52.75-1.1,1.14-1.68.4-.6.83-1.26,1.26-1.91.07-.11.15-.23.24-.37.34-.53.68-1.06,1.01-1.6,2.13-3.39,4.12-6.87,5.91-10.33l.19-.36c.34-.64.65-1.25.96-1.85.24-.46.51-.99.77-1.54.98-1.97,1.93-3.99,2.8-5.97.68-1.55,1.27-2.94,1.8-4.26.14-.33.27-.66.4-1,.24-.62.51-1.29.76-1.95.11-.3.23-.61.35-.91l.99-1v-1.74c.16-.44.31-.87.46-1.31.52-1.5,1.03-3.05,1.53-4.61.05-.13.09-.26.13-.4.77-2.47,1.51-5.04,2.21-7.63.24-.88.46-1.75.68-2.6.22-.82.43-1.72.65-2.64.52-2.18,1.03-4.43,1.5-6.67.04-.18.16-.79.16-.79.22-1.02.41-1.99.59-2.96.22-1.16.44-2.35.66-3.56.19-1.11.38-2.21.56-3.32.11-.61.2-1.21.29-1.83.18-1.14.36-2.29.52-3.46.19-1.34.39-2.71.56-4.08l.03-.24c.01-.11.03-.22.04-.34.17-1.28.32-2.55.47-3.81l.07-.42v-.25c.31-2.74.6-5.55.85-8.36l.12-1.45.25-2.99c.88-11.4,1.33-23.69,1.4-37.58.04-10.55-.14-22.26-.56-36.85ZM439.66,279.6c-.08.99-.16,1.98-.24,2.96-.04.47-.08.94-.12,1.41-.26,2.88-.55,5.74-.87,8.57,0,.03-.01.06-.01.08-.15,1.29-.3,2.58-.47,3.86-.03.22-.06.44-.08.65-.17,1.34-.36,2.67-.55,3.99-.16,1.14-.33,2.27-.51,3.39-.08.57-.17,1.13-.27,1.69-.18,1.1-.36,2.19-.55,3.27-.21,1.18-.43,2.34-.65,3.5-.17.91-.35,1.83-.54,2.73-.06.27-.11.55-.17.82-.46,2.2-.95,4.38-1.47,6.54-.2.85-.4,1.69-.62,2.52-.21.83-.43,1.67-.65,2.5-.67,2.49-1.38,4.94-2.14,7.37-.03.09-.05.18-.08.26-.49,1.53-.99,3.05-1.51,4.55-.27.79-.55,1.58-.84,2.37,0,.01,0,.02-.01.03-.28.78-.57,1.55-.87,2.32-.24.63-.49,1.27-.74,1.9-.11.29-.22.58-.34.86-.56,1.39-1.15,2.77-1.75,4.13-.84,1.92-1.73,3.82-2.66,5.69-.24.49-.48.97-.73,1.45-.29.57-.59,1.14-.89,1.71l-.22.41c-1.73,3.36-3.62,6.66-5.66,9.9-.32.53-.66,1.06-1,1.58-.03.06-.07.11-.11.17-.42.65-.85,1.3-1.28,1.94-.35.53-.71,1.06-1.08,1.59-.34.5-.69,1.01-1.05,1.51-.42.6-.84,1.19-1.27,1.78-.49.68-.99,1.35-1.5,2.02-1.1,1.46-2.23,2.92-3.39,4.36-.58.72-1.16,1.44-1.76,2.16-1.78,2.15-3.62,4.27-5.52,6.37-.63.7-1.27,1.39-1.92,2.09-.58.62-1.16,1.24-1.75,1.86-.6.64-1.21,1.28-1.83,1.91-.58.6-1.16,1.19-1.75,1.78-6.23,6.28-12.96,12.35-20.06,18.26-.66.56-1.34,1.12-2.01,1.66-.72.61-1.45,1.2-2.18,1.78-.71.58-1.43,1.16-2.16,1.74-5.91,4.71-12.04,9.32-18.32,13.86-1.05.76-2.12,1.53-3.18,2.28-4.58,3.26-9.23,6.48-13.93,9.67-3.23,2.19-6.47,4.36-9.73,6.52-1.56,1.04-3.13,2.07-4.7,3.1-8.26,5.42-16.6,10.77-24.9,16.09-16.17,10.37-32.7,20.97-48.32,31.93-15.85-11.28-32.64-22.2-49.05-32.87-43.03-27.98-87.26-56.74-115.22-91.62-6.42-7.99-11.97-16.3-16.47-24.99l-.15-.29c-24.71-46.76-22.73-112.69-20.82-176.45.57-19.12,1.15-38.67.98-57.69,2.3-.64,4.6-1.29,6.9-1.94,2.02-.58,4.04-1.17,6.06-1.76.07-.02.14-.04.21-.06,2.08-.61,4.16-1.24,6.24-1.87,1.47-.44,2.94-.89,4.4-1.34.83-.25,1.66-.51,2.48-.77,1.45-.45,2.91-.91,4.36-1.37,1.46-.46,2.91-.93,4.36-1.4,1.96-.63,3.91-1.27,5.87-1.92.19-.06.39-.12.59-.19,1.61-.53,3.22-1.07,4.83-1.62,1.85-.62,3.69-1.25,5.54-1.89,1.42-.49,2.84-.99,4.26-1.49.98-.34,1.97-.69,2.95-1.04,2.5-.89,4.99-1.79,7.48-2.71,1.92-.69,3.83-1.4,5.74-2.12,2.64-.98,5.27-1.98,7.9-3,1.73-.66,3.46-1.33,5.18-2.01,2.59-1.01,5.17-2.04,7.76-3.09,1.78-.71,3.55-1.43,5.32-2.16.1-.04.2-.08.31-.13,1.65-.67,3.29-1.36,4.93-2.04,1.09-.46,2.19-.92,3.28-1.39,1.54-.64,3.08-1.3,4.62-1.96.22-.09.43-.18.65-.28,1.66-.71,3.32-1.43,4.98-2.16.93-.41,1.86-.82,2.79-1.23,2.01-.89,4.01-1.78,6.01-2.69,1.96-.87,3.91-1.76,5.85-2.66,1.05-.48,2.09-.96,3.13-1.45,1.53-.7,3.05-1.41,4.57-2.13,1.44-.67,2.88-1.35,4.31-2.05.33-.15.67-.31,1-.47,1.01-.48,2.02-.96,3.02-1.45,2.59-1.25,5.18-2.52,7.76-3.81,1.09-.53,2.18-1.07,3.27-1.62,4.12-2.06,8.22-4.15,12.31-6.28,1.11-.57,2.21-1.15,3.31-1.73.99-.52,1.98-1.04,2.96-1.56,7.71-4.08,15.38-8.28,23-12.6,63.82,36.46,130.89,64.66,199.97,84.08-.09,19.1.59,38.72,1.27,57.91.24,6.93.48,13.88.69,20.83.01.48.03.97.04,1.45.36,12.27.61,24.52.56,36.61-.06,12.57-.45,24.97-1.38,37.03Z"/>
          <path class="cls-1" d="M422.99,210.01c-154.31,9.85-282.93,74.43-336.17,162.41-5.11-6.59-9.56-13.4-13.21-20.47l-.14-.27c-22.59-42.75-20.75-104.27-18.96-163.76.48-16.34.98-33.16.96-49.71,63.04-17.9,124.58-43.57,183.03-76.36,58.3,32.97,119.67,58.84,182.59,76.95.04,16.96.65,34.39,1.2,49.93.25,7.08.49,14.17.7,21.26Z"/>
          <path class="cls-6" d="M385.41,232.11c0,23.42-6.14,46.37-17.71,66.59-2.55,4.47-5.37,8.8-8.45,12.98-1.06,1.44-2.12,2.87-3.19,4.29-24.95,33.06-54.91,62.04-88.37,86.45l-24.56,17.91c-1.42,1.04-2.98,1.78-4.61,2.24-1.63-.46-3.19-1.2-4.61-2.24l-24.56-17.91c-33.46-24.41-63.42-53.39-88.37-86.45-1.07-1.42-2.13-2.85-3.19-4.29-3.08-4.18-5.9-8.51-8.45-12.98-11.57-20.22-17.71-43.17-17.71-66.59,0-1.24.02-2.48.05-3.72.31-11.38,3.26-22.37,8.44-32.18,5.19-9.8,12.59-18.44,21.82-25.11.64-.46,1.29-.91,1.94-1.35,6.81-4.6,14.69-7.84,23.08-9.79,37.23-8.64,75.34,10.74,91.5,45.39l.06.13.06-.13c16.16-34.65,54.27-54.03,91.5-45.39,8.39,1.95,16.27,5.19,23.08,9.79.65.44,1.3.89,1.94,1.35,9.23,6.67,16.63,15.31,21.82,25.11,5.18,9.81,8.13,20.8,8.44,32.18.03,1.24.05,2.48.05,3.72Z"/>
          <path class="cls-3" d="M65.59,410.13c2.22-7.97,12.21-10.48,18.02-4.58,28.08,28.49,65.64,52.92,102.17,76.67,16.23,10.55,33.02,21.47,48.8,32.7l4.14,2.95,4.17-2.93c15.47-10.85,32-21.45,47.98-31.7l.09-.06c7.7-4.94,16.43-10.53,24.96-16.13,1.58-1.04,3.17-2.08,4.74-3.13,3.27-2.16,6.53-4.35,9.78-6.55,5.04-3.42,9.64-6.61,14.06-9.76,1.07-.76,2.16-1.54,3.23-2.32,6.81-4.92,12.89-9.52,18.59-14.06.73-.58,1.46-1.17,2.19-1.76.75-.6,1.5-1.21,2.24-1.84.7-.56,1.41-1.14,2.09-1.72,7.63-6.35,14.36-12.48,20.51-18.68.6-.6,1.21-1.22,1.81-1.84.62-.63,1.27-1.31,1.91-1.99.57-.6,1.17-1.24,1.76-1.87.69-.75,1.36-1.47,2.01-2.19,1.99-2.21,3.92-4.43,5.72-6.6.6-.73,1.21-1.48,1.82-2.23,1.14-1.42,2.33-2.95,3.53-4.55.53-.69,1.07-1.41,1.59-2.14.44-.6.88-1.22,1.33-1.86.34-.47.72-1.03,1.1-1.58.36-.52.75-1.1,1.14-1.68.4-.6.83-1.26,1.26-1.91.07-.11.15-.23.24-.37.34-.53.68-1.06,1.01-1.6,2.13-3.39,4.12-6.87,5.91-10.33l.19-.36c.34-.64.65-1.25.96-1.85.24-.46.51-.99.77-1.54.98-1.97,1.93-3.99,2.8-5.97.68-1.55,1.27-2.94,1.8-4.26.14-.33.27-.66.4-1,.34-.89.75-1.88,1.07-2.79l.04-.07.99-1v-1.74s.02-.04.02-.06c.67-1.88,1.33-3.86,1.97-5.86.05-.13.09-.26.13-.4.77-2.47,1.51-5.04,2.21-7.63.24-.88.46-1.75.68-2.6.22-.82.43-1.72.65-2.64.52-2.18,1.03-4.43,1.5-6.67.04-.18.16-.79.16-.79.22-1.02.41-1.99.59-2.96.22-1.16.44-2.35.66-3.56.19-1.11.38-2.21.56-3.32.11-.61.2-1.21.29-1.83.18-1.14.36-2.29.52-3.46.19-1.34.39-2.71.56-4.08l.03-.24c.01-.11.03-.22.04-.34.17-1.28.32-2.55.47-3.81l.07-.42v-.25c.31-2.74.6-5.55.85-8.36l.12-1.45.25-2.99c.88-11.4,1.33-23.69,1.4-37.58.03-7.82-.06-16.28-.28-26.08-.13-5.95,4.58-10.89,10.53-11.04h0c5.98-.15,10.93,4.58,11.07,10.56.89,38.02.36,80.3-9.44,117.92-1.07,4.16-2.26,8.25-3.54,12.18-.24.72-.46,1.39-.69,2.06-3.13,9.27-6.88,18.02-11.13,26.03-15.84,30.79-42.35,58.43-85.97,89.71-18.2,13.06-37.53,25.45-56.22,37.44-22.88,14.69-44.59,28.61-63.95,43.38-19.54-15.13-41.47-29.39-64.6-44.43-37.43-24.34-76.08-49.48-105.8-79.61-2.7-2.74-3.72-6.71-2.68-10.41l.05-.18Z"/>
          <path class="cls-5" d="M385.41,232.11c0,23.42-6.14,46.37-17.71,66.59-2.55,4.47-5.37,8.8-8.45,12.98-1.06,1.44-2.12,2.87-3.19,4.29-24.95,33.06-54.91,62.04-88.37,86.45l-24.56,17.91c-1.42,1.04-2.98,1.78-4.61,2.24-1.63-.46-3.19-1.2-4.61-2.24l-24.56-17.91c-30.94-22.57-58.88-49.04-82.64-79.04,58.03-55.55,149.71-95.91,256.77-109.6,1.11,4.76,1.75,9.65,1.88,14.61.03,1.24.05,2.48.05,3.72Z"/>
        </g>
      </g>
    </g>
  </g>
</svg>