<?xml version="1.0" encoding="UTF-8"?><svg id="Layer_2" xmlns="http://www.w3.org/2000/svg" viewBox="0 0 1920 40"><defs><style>.cls-1{fill:#9ec6c1;}</style></defs><g id="Layer_1-2"><path class="cls-1" d="M1846.15,40c-21,0-31.99-5.95-41.69-11.21-8.71-4.72-16.23-8.79-32.16-8.79s-23.45,4.07-32.16,8.79c-9.7,5.25-20.69,11.21-41.69,11.21s-31.99-5.95-41.69-11.21c-8.71-4.72-16.23-8.79-32.16-8.79s-23.45,4.07-32.16,8.79c-9.7,5.25-20.69,11.21-41.69,11.21s-31.99-5.95-41.69-11.21c-8.71-4.72-16.23-8.79-32.16-8.79s-23.45,4.07-32.16,8.79c-9.7,5.25-20.69,11.21-41.69,11.21s-31.99-5.95-41.69-11.21c-8.71-4.72-16.23-8.79-32.16-8.79s-23.45,4.07-32.16,8.79c-9.7,5.25-20.69,11.21-41.69,11.21s-31.99-5.95-41.69-11.21c-8.71-4.72-16.23-8.79-32.16-8.79s-23.45,4.07-32.16,8.79c-9.7,5.25-20.69,11.21-41.68,11.21s-31.99-5.95-41.68-11.21c-8.71-4.72-16.23-8.79-32.16-8.79s-23.45,4.07-32.16,8.79c-9.7,5.25-20.69,11.21-41.68,11.21s-31.99-5.95-41.69-11.21c-8.71-4.72-16.23-8.79-32.16-8.79s-23.45,4.07-32.16,8.79c-9.7,5.25-20.69,11.21-41.69,11.21s-31.99-5.95-41.69-11.21c-8.71-4.72-16.23-8.79-32.16-8.79s-23.45,4.07-32.16,8.79c-9.7,5.25-20.69,11.21-41.69,11.21s-31.99-5.95-41.69-11.21c-8.71-4.72-16.23-8.79-32.16-8.79s-23.45,4.07-32.16,8.79c-9.7,5.25-20.69,11.21-41.69,11.21s-31.99-5.95-41.69-11.21c-8.71-4.72-16.23-8.79-32.16-8.79s-23.45,4.07-32.16,8.79c-9.7,5.25-20.69,11.21-41.68,11.21s-31.99-5.95-41.69-11.21c-8.71-4.72-16.23-8.79-32.16-8.79s-23.45,4.07-32.16,8.79c-9.7,5.25-20.69,11.21-41.68,11.21s-31.99-5.95-41.69-11.21c-8.71-4.72-16.23-8.79-32.16-8.79s-23.45,4.07-32.16,8.79c-9.7,5.25-20.69,11.21-41.68,11.21s-31.99-5.95-41.68-11.21C23.45,24.07,15.93,20,0,20V0c21,0,31.99,5.95,41.68,11.21,8.71,4.72,16.23,8.79,32.16,8.79s23.45-4.07,32.16-8.79C115.7,5.95,126.69,0,147.68,0s31.99,5.95,41.69,11.21c8.71,4.72,16.23,8.79,32.16,8.79s23.45-4.07,32.16-8.79c9.7-5.25,20.69-11.21,41.68-11.21s31.99,5.95,41.69,11.21c8.71,4.72,16.23,8.79,32.16,8.79s23.45-4.07,32.16-8.79c9.7-5.25,20.69-11.21,41.69-11.21s31.99,5.95,41.68,11.21c8.71,4.72,16.23,8.79,32.16,8.79s23.45-4.07,32.16-8.79c9.7-5.25,20.69-11.21,41.69-11.21s31.99,5.95,41.69,11.21c8.71,4.72,16.23,8.79,32.16,8.79s23.45-4.07,32.16-8.79c9.7-5.25,20.69-11.21,41.69-11.21s31.99,5.95,41.69,11.21c8.71,4.72,16.23,8.79,32.16,8.79s23.45-4.07,32.16-8.79c9.7-5.25,20.69-11.21,41.69-11.21s31.99,5.95,41.69,11.21c8.71,4.72,16.23,8.79,32.16,8.79s23.45-4.07,32.16-8.79c9.7-5.25,20.69-11.21,41.68-11.21s31.99,5.95,41.68,11.21c8.71,4.72,16.23,8.79,32.16,8.79s23.45-4.07,32.16-8.79c9.7-5.25,20.69-11.21,41.68-11.21s31.99,5.95,41.69,11.21c8.71,4.72,16.23,8.79,32.16,8.79s23.45-4.07,32.16-8.79c9.7-5.25,20.69-11.21,41.69-11.21s31.99,5.95,41.69,11.21c8.71,4.72,16.23,8.79,32.16,8.79s23.45-4.07,32.16-8.79c9.7-5.25,20.69-11.21,41.69-11.21s31.99,5.95,41.69,11.21c8.71,4.72,16.23,8.79,32.16,8.79s23.45-4.07,32.16-8.79c9.7-5.25,20.69-11.21,41.69-11.21s31.99,5.95,41.69,11.21c8.71,4.72,16.23,8.79,32.16,8.79s23.45-4.07,32.16-8.79c9.7-5.25,20.69-11.21,41.69-11.21s31.99,5.95,41.69,11.21c8.71,4.72,16.24,8.79,32.17,8.79s23.45-4.07,32.16-8.79c9.7-5.25,20.69-11.21,41.69-11.21v20c-15.93,0-23.45,4.08-32.17,8.79-9.7,5.25-20.69,11.21-41.69,11.21Z"/></g></svg>